<svg width="32" height="32" viewBox="0 0 32 32" fill="none" xmlns="http://www.w3.org/2000/svg">
<g filter="url(#filter0_d_1_828)">
<rect width="27.52" height="27.52" rx="2" fill="url(#paint0_linear_1_828)"/>
<path d="M9.81744 7.62302C8.89632 8.22042 8.71537 10.0878 9.06313 11.6097C9.33397 12.7949 9.90979 14.3848 10.8808 15.8819C11.7942 17.2903 13.0686 18.5532 14.0403 19.2838C15.2881 20.222 17.0669 20.8184 17.988 20.221C18.4538 19.9189 19.1458 19.0936 19.1774 18.9455C19.1774 18.9455 18.7716 18.3198 18.6825 18.1825L17.3217 16.0843C17.2206 15.9284 16.5865 16.0709 16.2643 16.2534C15.8297 16.4996 15.4295 17.1603 15.4295 17.1603C15.1316 17.3324 14.882 17.1609 14.3605 16.9209C13.7196 16.626 12.9991 15.7098 12.4256 14.88C11.9018 14.018 11.3591 12.9864 11.3512 12.281C11.3448 11.707 11.2899 11.4092 11.5687 11.2073C11.5687 11.2073 12.3351 11.1113 12.7371 10.815C13.0351 10.5952 13.4239 10.0743 13.3227 9.9184L11.962 7.82023C11.8729 7.68293 11.4671 7.05725 11.4671 7.05725C11.319 7.0257 10.2832 7.32094 9.81744 7.62302Z" fill="white"/>
</g>
<defs>
<filter id="filter0_d_1_828" x="0" y="0" width="31.5234" height="31.52" filterUnits="userSpaceOnUse" color-interpolation-filters="sRGB">
<feFlood flood-opacity="0" result="BackgroundImageFix"/>
<feColorMatrix in="SourceAlpha" type="matrix" values="0 0 0 0 0 0 0 0 0 0 0 0 0 0 0 0 0 0 127 0" result="hardAlpha"/>
<feOffset dx="2" dy="2"/>
<feGaussianBlur stdDeviation="1"/>
<feComposite in2="hardAlpha" operator="out"/>
<feColorMatrix type="matrix" values="0 0 0 0 0.92549 0 0 0 0 0.615686 0 0 0 0 0.615686 0 0 0 0.4 0"/>
<feBlend mode="normal" in2="BackgroundImageFix" result="effect1_dropShadow_1_828"/>
<feBlend mode="normal" in="SourceGraphic" in2="effect1_dropShadow_1_828" result="shape"/>
</filter>
<linearGradient id="paint0_linear_1_828" x1="13.76" y1="0" x2="13.76" y2="27.52" gradientUnits="userSpaceOnUse">
<stop stop-color="#FFB28E"/>
<stop offset="1" stop-color="#FFB8B6"/>
</linearGradient>
</defs>
</svg>
