<svg width="21" height="26" viewBox="0 0 21 26" fill="none" xmlns="http://www.w3.org/2000/svg">
<path d="M16.6703 0H4.32966C1.94205 0 0 1.94205 0 4.32966V21.4796C0 23.8668 1.94205 25.8093 4.32971 25.8093H12.9053H13.5688L14.0386 25.3399L20.5306 18.8478L21 18.3781V17.7137V4.32966C21 1.94205 19.058 0 16.6703 0ZM19.3969 17.7137H15.1772C13.9221 17.7137 12.9052 18.7315 12.9052 19.9861V24.2062H4.32961C2.824 24.2062 1.603 22.9856 1.603 21.4796V4.32966C1.603 2.8237 2.82405 1.60305 4.32961 1.60305H16.6702C18.1766 1.60305 19.3968 2.8237 19.3968 4.32966V17.7137H19.3969Z" fill="#ED702D"/>
<path d="M5.87877 6.39746H4.33203V7.87353H5.87877V6.39746Z" fill="#ED702D"/>
<path d="M5.87877 9.99097H4.33203V11.4667H5.87877V9.99097Z" fill="#ED702D"/>
<path d="M5.87877 13.5842H4.33203V15.06H5.87877V13.5842Z" fill="#ED702D"/>
<path d="M5.87877 17.1775H4.33203V18.6532H5.87877V17.1775Z" fill="#ED702D"/>
<path d="M16.6682 6.39746H7.55078V7.87353H16.6682V6.39746Z" fill="#ED702D"/>
<path d="M16.6682 9.99097H7.55078V11.4667H16.6682V9.99097Z" fill="#ED702D"/>
<path d="M16.6682 13.5842H7.55078V15.06H16.6682V13.5842Z" fill="#ED702D"/>
<path d="M11.2981 17.1775H7.55078V18.6532H11.2981V17.1775Z" fill="#ED702D"/>
</svg>
