<svg width="15" height="18" viewBox="0 0 15 18" fill="none" xmlns="http://www.w3.org/2000/svg">
<path d="M0 0V18H6V15.1875H9V18H15V0H0ZM4.125 11.4373H1.875V9.18731H4.125V11.4373ZM4.125 7.49981H1.875V5.24981H4.125V7.49981ZM4.125 3.56231H1.875V1.31231H4.125V3.56231ZM8.625 11.4373H6.375V9.18731H8.625V11.4373ZM8.625 7.49981H6.375V5.24981H8.625V7.49981ZM8.625 3.56231H6.375V1.31231H8.625V3.56231ZM13.125 11.4373H10.875V9.18731H13.125V11.4373ZM13.125 7.49981H10.875V5.24981H13.125V7.49981ZM13.125 3.56231H10.875V1.31231H13.125V3.56231Z" fill="white"/>
</svg>
