<svg width="32" height="32" viewBox="0 0 32 32" fill="none" xmlns="http://www.w3.org/2000/svg">
<g filter="url(#filter0_d_1_825)">
<rect width="27.52" height="27.52" rx="2" fill="url(#paint0_linear_1_825)"/>
<path d="M16.9744 6.26587H11.1163C8.92921 6.26587 7.15625 8.11592 7.15625 10.3981V16.7554C7.15625 19.0375 8.92921 20.8876 11.1163 20.8876H16.9743C19.1614 20.8876 20.9344 19.0375 20.9344 16.7554V10.3981C20.9344 8.11592 19.1614 6.26587 16.9744 6.26587ZM8.56218 10.3981C8.56218 8.92845 9.70789 7.73292 11.1163 7.73292H16.9743C18.3827 7.73292 19.5284 8.92845 19.5284 10.3981V16.7554C19.5284 18.225 18.3827 19.4205 16.9743 19.4205H11.1163C9.70789 19.4205 8.56218 18.225 8.56218 16.7554V10.3981Z" fill="white"/>
<path d="M14.0382 17.3424C16.0279 17.3424 17.6467 15.6533 17.6467 13.577C17.6467 11.5008 16.0279 9.81152 14.0382 9.81152C12.0485 9.81152 10.4297 11.5008 10.4297 13.577C10.4297 15.6533 12.0485 17.3424 14.0382 17.3424ZM14.0382 10.9852C15.4078 10.9852 16.522 12.1479 16.522 13.577C16.522 15.0062 15.4078 16.1689 14.0382 16.1689C12.6686 16.1689 11.5544 15.0062 11.5544 13.577C11.5544 12.1479 12.6686 10.9852 14.0382 10.9852Z" fill="white"/>
<path d="M17.7537 10.5454C18.2002 10.5454 18.5622 10.1677 18.5622 9.70179C18.5622 9.23586 18.2002 8.85815 17.7537 8.85815C17.3073 8.85815 16.9453 9.23586 16.9453 9.70179C16.9453 10.1677 17.3073 10.5454 17.7537 10.5454Z" fill="white"/>
<path d="M16.9744 6.26587H11.1163C8.92921 6.26587 7.15625 8.11592 7.15625 10.3981V16.7554C7.15625 19.0375 8.92921 20.8876 11.1163 20.8876H16.9743C19.1614 20.8876 20.9344 19.0375 20.9344 16.7554V10.3981C20.9344 8.11592 19.1614 6.26587 16.9744 6.26587ZM8.56218 10.3981C8.56218 8.92845 9.70789 7.73292 11.1163 7.73292H16.9743C18.3827 7.73292 19.5284 8.92845 19.5284 10.3981V16.7554C19.5284 18.225 18.3827 19.4205 16.9743 19.4205H11.1163C9.70789 19.4205 8.56218 18.225 8.56218 16.7554V10.3981Z" fill="white"/>
<path d="M14.0382 17.3424C16.0279 17.3424 17.6467 15.6533 17.6467 13.577C17.6467 11.5008 16.0279 9.81152 14.0382 9.81152C12.0485 9.81152 10.4297 11.5008 10.4297 13.577C10.4297 15.6533 12.0485 17.3424 14.0382 17.3424ZM14.0382 10.9852C15.4078 10.9852 16.522 12.1479 16.522 13.577C16.522 15.0062 15.4078 16.1689 14.0382 16.1689C12.6686 16.1689 11.5544 15.0062 11.5544 13.577C11.5544 12.1479 12.6686 10.9852 14.0382 10.9852Z" fill="white"/>
<path d="M17.7537 10.5454C18.2002 10.5454 18.5622 10.1677 18.5622 9.70179C18.5622 9.23586 18.2002 8.85815 17.7537 8.85815C17.3073 8.85815 16.9453 9.23586 16.9453 9.70179C16.9453 10.1677 17.3073 10.5454 17.7537 10.5454Z" fill="white"/>
</g>
<defs>
<filter id="filter0_d_1_825" x="0" y="0" width="31.5234" height="31.52" filterUnits="userSpaceOnUse" color-interpolation-filters="sRGB">
<feFlood flood-opacity="0" result="BackgroundImageFix"/>
<feColorMatrix in="SourceAlpha" type="matrix" values="0 0 0 0 0 0 0 0 0 0 0 0 0 0 0 0 0 0 127 0" result="hardAlpha"/>
<feOffset dx="2" dy="2"/>
<feGaussianBlur stdDeviation="1"/>
<feComposite in2="hardAlpha" operator="out"/>
<feColorMatrix type="matrix" values="0 0 0 0 0.92549 0 0 0 0 0.615686 0 0 0 0 0.615686 0 0 0 0.4 0"/>
<feBlend mode="normal" in2="BackgroundImageFix" result="effect1_dropShadow_1_825"/>
<feBlend mode="normal" in="SourceGraphic" in2="effect1_dropShadow_1_825" result="shape"/>
</filter>
<linearGradient id="paint0_linear_1_825" x1="13.76" y1="0" x2="13.76" y2="27.52" gradientUnits="userSpaceOnUse">
<stop stop-color="#FFB28E"/>
<stop offset="1" stop-color="#FFB8B6"/>
</linearGradient>
</defs>
</svg>
