<svg width="78" height="38" viewBox="0 0 78 38" fill="none" xmlns="http://www.w3.org/2000/svg">
<path opacity="0.6" d="M35.3862 35.4316C26.5357 35.7869 20.7495 28.8276 20.7495 21.3751C20.7495 13.9226 25.9146 7.42076 36.5209 7.5741C40.9347 7.64311 45.1414 9.98161 47.6026 13.2555C44.7632 8.20026 39.3527 5.07715 33.1422 5.07715C23.985 5.07715 17.1484 12.2077 17.1484 21.3649C17.1484 30.5221 23.985 37.65 33.1422 37.65C39.3527 37.65 44.7632 34.5243 47.6026 29.4717C45.1414 32.7532 39.7974 35.2553 35.3862 35.4316Z" fill="url(#paint0_linear_3_4126)" stroke="#F18F69" stroke-width="0.5"/>
<path d="M39.4587 26.8597C40.1258 26.3741 40.9641 25.9907 40.6216 24.9045C40.6574 26.2003 38.6664 26.2974 37.5547 26.9082C37.8869 26.2463 39.4459 26.3153 39.6657 25.5843C39.4485 25.4923 39.3948 25.776 39.1341 25.8961C38.646 26.1185 37.8972 26.1083 37.616 26.4559C37.5879 26.6501 37.4269 26.7625 37.4959 27.013C36.972 27.2123 36.8365 27.6443 36.512 27.9612C36.4813 28.825 35.6532 29.216 35.7606 30.1642C35.919 30.0237 35.965 29.8192 36.1695 29.7093C36.0749 29.901 35.9139 30.0569 35.8296 30.2537C34.5849 31.8023 33.0051 33.0483 31.2091 33.8979C29.413 34.7474 27.4477 35.1783 25.461 35.1581C14.9645 35.0789 9.6895 28.8276 9.6895 21.3725C9.6895 16.2457 12.5596 11.5738 17.5049 9.20718C17.9272 9.08901 18.3326 8.91723 18.7113 8.69604C20.8701 7.90016 23.1609 7.52285 25.461 7.58429C29.8747 7.66096 34.0815 9.9918 36.5452 13.2657C33.7058 8.21045 28.2927 5.08734 22.0823 5.08734C21.6836 5.08734 21.29 5.10522 20.9015 5.13334C20.8844 4.49038 20.7402 3.85717 20.4773 3.27021C18.6397 -1.02854 13.0069 1.30485 10.4128 5.87962C8.98157 3.0862 8.00016 1.42752 4.56014 3.57945C1.78972 5.31735 3.14682 9.20207 4.91794 9.37586C6.49995 8.8366 7.57336 6.72045 5.45465 5.33013C7.48135 2.41915 9.54383 5.07456 8.818 7.23415C8.09217 9.39375 6.77341 12.3789 6.33382 14.5078C5.92312 16.5338 5.84285 18.6129 6.09614 20.6646C6.09614 20.8971 6.08081 21.1297 6.08081 21.3648C6.07978 22.7164 6.23414 24.0636 6.54084 25.3799C5.71789 23.4861 4.60103 22.2057 1 21.4671C3.02925 24.2528 3.81131 27.8564 7.66792 28.6231C10.2007 34.0234 15.5473 37.6474 22.0746 37.6474C28.0065 37.6474 32.8598 35.1121 35.758 30.4914C35.758 30.4914 35.758 30.5067 35.758 30.5118C36.1695 30.2051 37.3426 30.4275 37.6876 29.8473C37.5445 29.7298 36.9515 30.1974 36.6806 30.016C37.3937 29.7374 38.3879 29.5304 38.2371 28.5694C38.5898 28.3139 39.3284 28.1375 39.5303 28.503C39.7092 28.2679 39.2338 28.1477 39.1367 27.9918C39.4919 27.9918 40.1437 28.0941 39.9827 28.5643C40.4759 28.2372 39.4306 27.2865 38.5617 27.7976C38.9552 27.4909 39.8395 27.3504 40.0414 27.7721C40.1462 27.3529 39.4792 27.2354 39.2364 27.0053C39.7435 26.9311 40.2354 26.7758 40.6931 26.5453C40.734 26.3945 39.8881 26.8367 39.4587 26.8597ZM13.6867 3.74813C14.9262 2.8204 18.0314 1.60898 18.1669 3.99093C18.287 5.96651 16.1964 5.57804 15.1665 6.58755C11.6554 8.23441 8.8856 11.1327 7.39956 14.7148C8.25829 10.4263 10.4613 6.15563 13.6867 3.74813ZM36.5069 28.3164C36.7369 27.9177 37.3886 27.4015 37.9406 27.427C37.3656 27.6136 37.0027 28.3164 36.5069 28.3164ZM37.0461 29.4026C37.4576 29.2493 37.7259 28.6487 38.1936 28.7611C38.0045 29.0397 37.5573 29.5381 37.0461 29.3975V29.4026Z" fill="url(#paint1_linear_3_4126)" stroke="#F3D08E" stroke-width="0.5"/>
<path d="M27.6477 17.2756C28.67 17.2756 29.4904 17.8149 29.5568 17.8149C29.6233 17.8149 29.6514 17.7408 29.7102 17.7408C29.7253 17.7411 29.7402 17.7444 29.754 17.7505C29.7678 17.7566 29.7803 17.7653 29.7908 17.7763C29.8012 17.7872 29.8094 17.8 29.8149 17.8141C29.8203 17.8282 29.823 17.8432 29.8226 17.8583C29.8354 18.3439 29.9249 18.8014 29.9249 18.8806C29.9249 18.9599 29.8661 19.0135 29.8354 19.0135C29.8047 19.0135 29.7409 18.9624 29.7102 18.9088C29.2834 18.1062 28.6061 17.567 27.6477 17.567C27.3662 17.5559 27.0855 17.6037 26.8236 17.7073C26.5617 17.8109 26.3242 17.9681 26.1265 18.1687C25.9287 18.3693 25.7751 18.609 25.6753 18.8724C25.5755 19.1358 25.5317 19.4172 25.5469 19.6985C25.5469 21.0326 26.2037 22.336 27.9927 22.336C28.9077 22.336 29.4827 21.6817 29.7817 21.2319C29.8124 21.1808 29.8405 21.1808 29.8942 21.1808C29.9479 21.1808 29.9581 21.2319 29.9581 21.283C29.9301 21.5266 29.8865 21.7682 29.8277 22.0063C29.8193 22.0362 29.8041 22.0638 29.7832 22.0868C29.7624 22.1099 29.7365 22.1278 29.7076 22.1392C29.0687 22.4484 28.5729 22.6759 27.8062 22.6759C25.5801 22.6759 24.8594 21.2984 24.8594 20.1406C24.8543 18.5816 25.8203 17.2756 27.6477 17.2756Z" fill="#2F2725"/>
<path d="M30.8817 17.2832C30.9405 17.2832 31.0069 17.2985 31.0811 17.2985C31.2574 17.2985 31.4286 17.3267 31.7225 17.3267C32.1212 17.3267 32.364 17.2985 32.4893 17.2985C32.6145 17.2985 32.6145 17.3139 32.6145 17.3727C32.6145 17.6896 32.0625 17.2755 32.0088 18.1675C31.9883 18.625 31.95 21.1679 31.95 21.2497V21.5436C31.95 21.7864 32.0037 22.0905 32.1289 22.1263C32.2354 22.1679 32.3494 22.1871 32.4637 22.1825C34.815 22.1825 34.5415 21.4823 34.7639 21.4823C34.8073 21.4823 34.8508 21.5181 34.8508 21.6075C34.8508 22.0497 34.2757 22.5736 33.9818 22.5736C33.0388 22.5736 32.4049 22.4995 31.9551 22.4995C31.5488 22.4995 31.3954 22.5582 31.0325 22.5582C30.8868 22.5582 30.8204 22.5225 30.8204 22.4688C30.8222 22.4382 30.8352 22.4094 30.8568 22.3877C30.8785 22.366 30.9074 22.3531 30.9379 22.3512C31.015 22.3511 31.0897 22.325 31.1501 22.2771C31.3136 22.1519 31.4056 21.9628 31.4056 20.8331V19.9207C31.4056 19.5144 31.4286 19.1003 31.4286 18.6429C31.4286 18.4282 31.4286 18.2084 31.4133 17.9707C31.4005 17.6615 31.1041 17.5209 30.8178 17.5132C30.713 17.5132 30.7079 17.4698 30.7079 17.411C30.6747 17.3062 30.8229 17.2832 30.8817 17.2832Z" fill="#2F2725"/>
<path d="M35.2972 22.341C35.724 22.1774 35.6729 22.0292 37.8529 17.3726C37.9194 17.2244 37.9552 17.2014 38.0727 17.2014C38.1903 17.2014 38.1315 17.2168 38.6043 18.3898C38.9519 19.2435 39.9895 21.6535 40.0483 21.7736C40.4163 22.5173 40.8662 22.1774 40.8662 22.4432C40.8662 22.479 40.8534 22.5531 40.6668 22.5531C40.4802 22.5531 40.2119 22.5097 40.0049 22.5097C39.7493 22.5097 39.5321 22.5378 39.3199 22.5378C39.0107 22.5378 38.9647 22.5378 38.9647 22.4356C38.9647 22.2746 39.3327 22.3691 39.3327 22.0905C39.2321 21.6036 39.0662 21.1325 38.8395 20.69C38.8113 20.6287 38.7807 20.5648 38.5379 20.5648C38.3845 20.5648 38.1264 20.5775 37.6459 20.5775H37.2549C36.7974 20.5775 36.7693 20.6159 36.6875 20.7922C36.4319 21.3519 36.2173 21.7353 36.2173 21.9423C36.2173 22.4535 36.7616 22.2158 36.7616 22.4535C36.7616 22.5122 36.7616 22.5557 36.6364 22.5557C36.5112 22.5557 36.2837 22.5557 36.0256 22.5557C35.7675 22.5557 35.5528 22.5864 35.3918 22.5864C35.2307 22.5864 35.1771 22.571 35.1771 22.4969C35.1746 22.4788 35.1757 22.4603 35.1804 22.4426C35.1851 22.4249 35.1933 22.4083 35.2045 22.3938C35.2156 22.3793 35.2296 22.3671 35.2455 22.3581C35.2614 22.349 35.279 22.3432 35.2972 22.341ZM37.4133 20.1865H37.6408H38.3411C38.5328 20.1865 38.6299 20.1482 38.6299 20.0664C38.6299 19.9846 37.9501 18.3438 37.812 18.3438C37.7149 18.3438 37.0453 19.9642 37.0453 20.0536C37.0377 20.1814 37.1041 20.1865 37.4133 20.1865Z" fill="#2F2725"/>
<path d="M41.4412 17.3064C41.6483 17.3064 41.8604 17.3345 42.2744 17.3345C42.5913 17.3345 42.4584 17.3217 42.9236 17.3217C42.9747 17.3217 43.1229 17.3217 43.1229 17.424C43.1229 17.5262 42.9977 17.5339 42.783 17.6233C42.5683 17.7128 42.5479 18.183 42.5479 18.4718C42.5479 20.202 42.5249 20.5164 42.5249 21.1988C42.4909 21.5081 42.5553 21.8202 42.7089 22.0907C42.8648 22.3029 42.99 22.3182 43.0616 22.3182H43.2098C43.2839 22.3182 43.3657 22.3616 43.3657 22.3974C43.3657 22.5175 43.3069 22.5303 43.1817 22.5303C42.783 22.5303 42.7242 22.5022 42.4814 22.5022C42.0981 22.5022 41.9345 22.538 41.6687 22.538C41.4029 22.538 41.339 22.4869 41.339 22.4281C41.339 22.2287 41.7735 22.4281 41.8834 21.9578C41.8987 21.8965 41.9652 20.4908 41.9652 19.9874V19.5759C41.9652 19.3612 41.9652 19.0826 41.9652 18.7811V18.4411C41.9672 18.2609 41.957 18.0807 41.9345 17.9019C41.8987 17.6463 41.5895 17.5339 41.3825 17.5262C41.2342 17.5262 41.2266 17.4521 41.2266 17.4163C41.2266 17.3805 41.2649 17.3064 41.4412 17.3064Z" fill="#2F2725"/>
<path d="M43.9255 17.2908H45.1497C45.4666 17.2908 45.6276 17.2678 45.8857 17.2678C46.7266 17.2678 47.4933 17.7176 47.4933 18.5074C47.4933 19.5987 46.5707 19.7852 46.5707 19.9156C46.5707 20.0459 47.7361 21.6611 48.0377 21.978C48.121 22.0796 48.2244 22.1629 48.3414 22.2227C48.4583 22.2825 48.5864 22.3175 48.7175 22.3256C48.7424 22.3242 48.767 22.3324 48.786 22.3486C48.8051 22.3648 48.8171 22.3877 48.8197 22.4125C48.8197 22.5377 48.8044 22.5965 48.2753 22.5965C48.0541 22.5885 47.8375 22.5309 47.6415 22.4279C47.2505 22.2004 46.6959 21.2701 46.3202 20.6593C46.011 20.1481 45.8653 20.0842 45.7758 20.0842H45.1701C45.0602 20.0842 45.0449 20.0842 45.0449 20.6082C45.0449 21.6458 45.0449 21.5436 45.0449 21.6458C45.0449 22.5377 45.9522 22.2285 45.9522 22.4713C45.9522 22.5454 45.9241 22.5914 45.8193 22.5914C45.7912 22.5914 44.8404 22.5377 44.7663 22.5377C44.4111 22.5377 44.0354 22.5684 43.9561 22.5684C43.8769 22.5684 43.8002 22.5454 43.8002 22.4509C43.8002 22.1953 44.4187 22.5173 44.4187 21.7071C44.4187 21.2343 44.4187 20.2018 44.4187 19.384C44.4187 18.6173 44.4187 18.3387 44.4187 18.1393C44.4187 17.3419 43.7031 17.6282 43.7031 17.4084C43.7108 17.3266 43.7721 17.2908 43.9255 17.2908ZM45.1062 19.7392C45.2027 19.7929 45.3134 19.8152 45.4231 19.8031H45.7094C46.609 19.8031 46.8748 19.292 46.8748 18.7808C46.8748 18.2697 46.4991 17.572 45.4359 17.572C45.0602 17.572 45.0449 17.7176 45.0449 18.3821V18.5891C45.0449 19.5527 45.0449 19.7009 45.1062 19.7392Z" fill="#2F2725"/>
<path d="M53.6594 17.2756C54.6817 17.2756 55.5021 17.8149 55.5686 17.8149C55.635 17.8149 55.6657 17.7408 55.7245 17.7408C55.7395 17.7411 55.7542 17.7444 55.7679 17.7505C55.7816 17.7567 55.794 17.7655 55.8042 17.7764C55.8144 17.7874 55.8224 17.8003 55.8276 17.8143C55.8328 17.8284 55.8351 17.8434 55.8344 17.8583C55.8497 18.3439 55.9392 18.8014 55.9392 18.8806C55.9392 18.9599 55.8804 19.0135 55.8497 19.0135C55.819 19.0135 55.7526 18.9624 55.7245 18.9088C55.2977 18.1062 54.6178 17.567 53.6594 17.567C53.3781 17.5563 53.0976 17.6044 52.8358 17.7081C52.574 17.8119 52.3368 17.969 52.1391 18.1696C51.9414 18.3701 51.7878 18.6096 51.6878 18.8729C51.5879 19.1361 51.5439 19.4173 51.5586 19.6985C51.5586 21.0326 52.2155 22.336 54.007 22.336C54.922 22.336 55.497 21.6817 55.796 21.2319C55.8242 21.1808 55.8548 21.1808 55.9059 21.1808C55.9571 21.1808 55.9724 21.2319 55.9724 21.283C55.9448 21.5269 55.9004 21.7686 55.8395 22.0063C55.8317 22.0361 55.817 22.0637 55.7965 22.0868C55.7761 22.1098 55.7506 22.1278 55.7219 22.1392C55.0804 22.4484 54.5872 22.6759 53.8205 22.6759C51.5944 22.6759 50.8711 21.2984 50.8711 20.1406C50.8635 18.5816 51.8321 17.2756 53.6594 17.2756Z" fill="#2F2725"/>
<path d="M56.899 17.2832C56.9578 17.2832 57.0243 17.2985 57.0984 17.2985C57.2747 17.2985 57.4434 17.3267 57.7399 17.3267C58.136 17.3267 58.3813 17.2985 58.5066 17.2985C58.6318 17.2985 58.6344 17.3139 58.6344 17.3727C58.6344 17.6896 58.0798 17.2755 58.0287 18.1675C58.0057 18.625 57.9699 21.1679 57.9699 21.2497V21.5436C57.9699 21.7864 58.021 22.0905 58.1462 22.1263C58.2471 22.166 58.3547 22.186 58.4631 22.1851C60.8144 22.1851 60.5409 21.4848 60.7633 21.4848C60.8067 21.4848 60.8527 21.5206 60.8527 21.6101C60.8527 22.0522 60.2777 22.5761 59.9812 22.5761C59.0382 22.5761 58.4043 22.502 57.9545 22.502C57.5507 22.502 57.3948 22.5608 57.0345 22.5608C56.8862 22.5608 56.8198 22.525 56.8198 22.4713C56.8221 22.441 56.8353 22.4124 56.8568 22.3908C56.8784 22.3693 56.907 22.3561 56.9374 22.3538C57.0152 22.354 57.0909 22.3279 57.152 22.2797C57.313 22.1544 57.4076 21.9653 57.4076 20.8357V19.9233C57.4076 19.5169 57.4306 19.1029 57.4306 18.6454C57.4306 18.4307 57.4306 18.2109 57.4153 17.9733C57.3999 17.664 57.106 17.5234 56.8172 17.5158C56.715 17.5158 56.7073 17.4723 56.7073 17.4135C56.6997 17.3062 56.8402 17.2832 56.899 17.2832Z" fill="#2F2725"/>
<path d="M61.4113 17.3064C61.6184 17.3064 61.833 17.3345 62.2445 17.3345C62.5614 17.3345 62.4285 17.3217 62.8937 17.3217C62.9448 17.3217 63.093 17.3217 63.093 17.424C63.093 17.5262 62.9678 17.5339 62.7531 17.6233C62.5384 17.7128 62.518 18.183 62.518 18.4718C62.518 20.202 62.495 20.5164 62.495 21.1988C62.461 21.5081 62.5254 21.8202 62.679 22.0907C62.8349 22.3029 62.9601 22.3182 63.0342 22.3182H63.1799C63.254 22.3182 63.3358 22.3616 63.3358 22.3974C63.3358 22.5175 63.277 22.5303 63.1518 22.5303C62.7531 22.5303 62.6943 22.5022 62.4515 22.5022C62.0682 22.5022 61.9046 22.538 61.6414 22.538C61.3372 22.538 61.3091 22.4869 61.3091 22.4281C61.3091 22.2287 61.7436 22.4281 61.8535 21.9578C61.8688 21.8965 61.9353 20.4908 61.9353 19.9874V19.5759C61.9353 19.3612 61.9353 19.0826 61.9353 18.7811V18.4411C61.9373 18.2609 61.9271 18.0807 61.9046 17.9019C61.8688 17.6463 61.5596 17.5339 61.3526 17.5262C61.2043 17.5262 61.1992 17.4521 61.1992 17.4163C61.1992 17.3805 61.235 17.3064 61.4113 17.3064Z" fill="#2F2725"/>
<path d="M63.8655 17.3268H64.1441C64.3434 17.3268 64.3664 17.3141 64.507 17.3141C64.5559 17.316 64.6039 17.3282 64.6479 17.3498C64.6919 17.3713 64.731 17.4018 64.7625 17.4393C64.7907 17.4981 65.0181 17.7102 65.2175 17.9837C65.9842 18.9727 67.4435 20.6289 67.901 21.1323C68.108 21.3598 68.1821 21.462 68.2332 21.462C68.2843 21.462 68.3073 21.2422 68.3073 21.0071V20.1382C68.3073 19.0111 68.292 18.7836 68.292 18.6277V18.5766C68.292 17.5543 67.8933 17.6463 67.5841 17.5543C67.4818 17.5236 67.4384 17.4725 67.4384 17.4291C67.4384 17.3856 67.4588 17.3192 67.5764 17.3192H68.2767C68.5859 17.3192 68.8006 17.3064 68.9412 17.3064C69.0817 17.3064 69.161 17.3268 69.161 17.4316C69.161 17.5364 68.9054 17.5696 68.9054 17.5773C68.8415 17.6156 68.6626 17.792 68.6626 18.4105V18.6916C68.6626 19.7318 68.5834 21.6103 68.5834 22.3386V22.4869C68.5834 22.584 68.568 22.6556 68.4786 22.6556C68.4347 22.6525 68.3932 22.6345 68.361 22.6044C65.0948 18.8245 64.9849 18.6993 64.9108 18.6993C64.8367 18.6993 64.8367 18.8986 64.8367 19.2104C64.8367 20.4039 64.7779 21.255 64.7779 21.5975C64.7779 22.5712 65.5011 22.2032 65.5011 22.446C65.5011 22.5635 65.4654 22.5712 65.3836 22.5712C65.1689 22.5712 65.243 22.5559 64.5939 22.5559C64.4405 22.5559 64.2335 22.5712 63.9677 22.5712C63.8731 22.5712 63.8067 22.5712 63.8067 22.4536C63.8067 22.262 64.1747 22.4971 64.3511 21.8939C64.4175 21.6384 64.5274 19.4021 64.5274 18.8628C64.5274 18.0246 64.3076 17.6182 63.776 17.5594C63.7621 17.5601 63.7481 17.5575 63.7353 17.552C63.7225 17.5465 63.7111 17.5381 63.702 17.5275C63.6928 17.5169 63.6863 17.5044 63.6827 17.4909C63.6792 17.4774 63.6787 17.4632 63.6815 17.4495C63.6815 17.3933 63.7556 17.3268 63.8655 17.3268Z" fill="#2F2725"/>
<path d="M69.8293 17.3064C70.0363 17.3064 70.251 17.3345 70.6625 17.3345C70.9794 17.3345 70.8465 17.3217 71.3116 17.3217C71.3628 17.3217 71.511 17.3217 71.511 17.424C71.511 17.5262 71.3858 17.5339 71.1711 17.6233C70.9564 17.7128 70.9359 18.183 70.9359 18.4718C70.9359 20.202 70.9129 20.5164 70.9129 21.1988C70.8802 21.508 70.9445 21.8197 71.097 22.0907C71.2529 22.3029 71.3781 22.3182 71.4522 22.3182H71.6004C71.672 22.3182 71.7538 22.3616 71.7538 22.3974C71.7538 22.5175 71.695 22.5303 71.5698 22.5303C71.1711 22.5303 71.1123 22.5022 70.8695 22.5022C70.4861 22.5022 70.3251 22.538 70.0593 22.538C69.7935 22.538 69.7271 22.4869 69.7271 22.4281C69.7271 22.2287 70.1616 22.4281 70.2715 21.9578C70.2868 21.8965 70.3532 20.4908 70.3532 19.9874V19.5759C70.3532 19.3612 70.3532 19.0826 70.3532 18.7811V18.4411C70.3548 18.261 70.3454 18.0809 70.3251 17.9019C70.2868 17.6463 69.9775 17.5339 69.7705 17.5262C69.6223 17.5262 69.6172 17.4521 69.6172 17.4163C69.6172 17.3805 69.653 17.3064 69.8293 17.3064Z" fill="#2F2725"/>
<path d="M75.071 17.2756C76.0932 17.2756 76.9136 17.8149 76.9801 17.8149C77.0465 17.8149 77.0747 17.7408 77.1334 17.7408C77.1485 17.7411 77.1634 17.7444 77.1773 17.7505C77.1911 17.7566 77.2036 17.7653 77.214 17.7763C77.2245 17.7872 77.2327 17.8 77.2381 17.8141C77.2436 17.8282 77.2462 17.8432 77.2459 17.8583C77.2459 18.3439 77.3481 18.8014 77.3481 18.8806C77.3481 18.9599 77.2893 19.0135 77.2587 19.0135C77.228 19.0135 77.1641 18.9624 77.1334 18.9088C76.7066 18.1062 76.0294 17.567 75.071 17.567C74.7895 17.5559 74.5088 17.6037 74.2469 17.7073C73.9849 17.8109 73.7475 17.9681 73.5497 18.1687C73.352 18.3693 73.1983 18.609 73.0985 18.8724C72.9987 19.1358 72.955 19.4172 72.9701 19.6985C72.9701 21.0326 73.627 22.336 75.4185 22.336C76.3309 22.336 76.906 21.6817 77.2076 21.2319C77.2382 21.1808 77.2663 21.1808 77.32 21.1808C77.3737 21.1808 77.3864 21.2319 77.3864 21.283C77.3576 21.5267 77.3132 21.7683 77.2536 22.0063C77.2457 22.0361 77.231 22.0637 77.2106 22.0868C77.1902 22.1098 77.1646 22.1278 77.136 22.1392C76.4945 22.4484 75.9987 22.6759 75.2345 22.6759C73.0085 22.6759 72.2852 21.2984 72.2852 20.1406C72.2775 18.5816 73.2436 17.2756 75.071 17.2756Z" fill="#2F2725"/>
<defs>
<linearGradient id="paint0_linear_3_4126" x1="32.3755" y1="37.6577" x2="32.3755" y2="5.08482" gradientUnits="userSpaceOnUse">
<stop stop-color="#EFB59A"/>
<stop offset="0.48" stop-color="#F8C9B1"/>
<stop offset="0.6" stop-color="#F8C6AD"/>
<stop offset="1" stop-color="#F7BFA4"/>
</linearGradient>
<linearGradient id="paint1_linear_3_4126" x1="40.4912" y1="27.3325" x2="0.447961" y2="12.7597" gradientUnits="userSpaceOnUse">
<stop stop-color="#EEC782"/>
<stop offset="0.15" stop-color="#F0CA86"/>
<stop offset="0.3" stop-color="#F4D492"/>
<stop offset="0.45" stop-color="#FDE4A6"/>
<stop offset="0.48" stop-color="#FFE9AC"/>
<stop offset="0.51" stop-color="#FCE4A0"/>
<stop offset="0.57" stop-color="#F7D987"/>
<stop offset="0.64" stop-color="#F3D174"/>
<stop offset="0.72" stop-color="#F0CB66"/>
<stop offset="0.82" stop-color="#EFC85E"/>
<stop offset="1" stop-color="#EEC75C"/>
</linearGradient>
</defs>
</svg>
