<svg width="91" height="32" viewBox="0 0 91 32" fill="none" xmlns="http://www.w3.org/2000/svg">
<g clip-path="url(#clip0_3631_585)">
<path opacity="0.6" d="M27.2721 29.7418C19.813 30.0301 14.9195 24.1202 14.9195 17.7778C14.9195 11.4355 19.2904 5.90995 28.2223 6.0541C31.928 6.10214 35.4913 8.12016 37.5342 10.9069C35.1587 6.58262 30.5978 3.93998 25.3717 3.93998C17.6751 3.89193 11.8789 9.94599 11.8789 17.7778C11.8789 25.5616 17.6276 31.6637 25.3717 31.6637C30.5978 31.6637 35.1587 29.0211 37.5342 24.6967C35.4913 27.4355 30.9778 29.5976 27.2721 29.7418Z" fill="url(#paint0_linear_3631_585)" stroke="#F18F69" stroke-width="0.5"/>
<path d="M32.782 22.4385C33.3521 22.006 34.0647 21.7178 33.7797 20.7568C33.8272 21.8619 32.1168 21.958 31.2141 22.4865C31.4992 21.91 32.8295 21.958 32.972 21.3814C32.782 21.2853 32.7344 21.5256 32.5444 21.6697C32.1168 21.8619 31.4992 21.8619 31.2616 22.1502C31.2141 22.2943 31.1191 22.3904 31.1666 22.6307C30.739 22.8229 30.5965 23.1592 30.359 23.4475C30.3114 24.1682 29.6463 24.5045 29.7413 25.3214C29.8839 25.2253 29.9314 25.0331 30.0739 24.937C29.9789 25.0811 29.8839 25.2253 29.7888 25.4175C27.6984 28.0121 24.6103 29.6457 21.047 29.5976C12.2102 29.5496 7.74429 24.2163 7.74429 17.8739C7.74429 13.5015 10.1673 9.51355 14.3482 7.49553C14.6807 7.39944 15.0133 7.25529 15.3459 7.0631C17.0087 6.43848 18.9091 6.10214 21.047 6.10214C24.7528 6.15019 28.316 8.16821 30.4065 10.955C28.031 6.63067 23.47 3.98803 18.244 3.98803C17.9114 3.98803 17.5788 3.98803 17.2462 4.03608C17.2462 3.55559 17.1512 3.02707 16.9137 2.45049C15.3459 -1.20116 10.6424 0.768808 8.45694 4.6607C7.26919 2.2583 6.41402 0.864904 3.51592 2.69073C1.18794 4.18022 2.32817 7.49553 3.80098 7.63968C5.13125 7.1592 6.03394 5.38142 4.27608 4.18022C5.98643 1.68172 7.69678 3.93998 7.12666 5.81385C6.50904 7.63968 5.41631 10.1862 5.03623 12.0121C4.70366 13.5976 4.60864 15.5676 4.84619 17.2493C4.84619 17.4415 4.84619 17.6337 4.84619 17.8259C4.84619 19.0271 4.98872 20.1802 5.22627 21.2373C4.51363 19.6036 3.61094 18.5466 0.570312 17.922C2.28066 20.2763 2.9458 23.3514 6.17647 24.0241C8.31441 28.6367 12.8278 31.7118 18.2915 31.7118C23.28 31.7118 27.3658 29.5496 29.8363 25.6096C30.1689 25.3694 31.1666 25.5136 31.4517 25.0331C31.3091 24.937 30.834 25.3214 30.5965 25.1772C31.2141 24.937 32.0218 24.7448 31.9268 23.928C32.2118 23.7358 32.8295 23.5436 33.0195 23.8799C33.162 23.6877 32.782 23.5916 32.6869 23.4475C32.972 23.4475 33.5421 23.5436 33.3996 23.928C33.8272 23.6397 32.9245 22.8229 32.2118 23.2553C32.5444 23.0151 33.3046 22.8709 33.4471 23.2553C33.5421 22.919 32.972 22.7748 32.782 22.6307C33.2095 22.5346 33.5896 22.4385 34.0172 22.2463C33.8272 22.0541 33.1145 22.4385 32.782 22.4385ZM11.07 2.73878C12.1152 1.97001 14.7282 0.912952 14.8232 2.93097C14.9183 4.61265 13.1604 4.27632 12.3052 5.14118C9.35962 6.53457 7.03164 8.98502 5.74888 12.0601C6.50904 8.4565 8.36192 4.80484 11.07 2.73878ZM30.2639 23.6877C30.454 23.3514 31.0241 22.919 31.4517 22.919C31.0241 23.0631 30.6915 23.6877 30.2639 23.6877ZM30.739 24.6006C31.0716 24.4565 31.3091 23.976 31.6892 24.0721C31.5467 24.3124 31.1666 24.6967 30.739 24.6006Z" fill="url(#paint1_linear_3631_585)" stroke="#F3D08E" stroke-width="0.5"/>
<path d="M41.0498 12.1562C42.0475 12.1562 42.9027 12.6848 42.9502 12.6848C42.9977 12.6848 43.0452 12.5887 43.0927 12.5887C43.1402 12.5887 43.1877 12.6367 43.1877 12.6848C43.1877 13.1653 43.2828 13.6457 43.2828 13.7418C43.3303 13.934 43.2353 13.934 43.2353 13.934C43.1877 13.934 43.1402 13.886 43.0927 13.8379C42.6651 13.0211 42 12.4926 41.0498 12.4926C39.8146 12.4926 38.9594 13.3575 38.9594 14.6547C38.9594 16.0001 39.6245 17.2974 41.3824 17.2974C42.2851 17.2974 42.8552 16.6247 43.1402 16.1923C43.1877 16.1442 43.1877 16.1442 43.2353 16.1442C43.2828 16.1442 43.2828 16.1923 43.2828 16.2403C43.2828 16.4325 43.1877 16.8169 43.1402 16.9611C43.1402 17.0091 43.0927 17.0572 43.0452 17.1052C42.4276 17.3935 41.905 17.6337 41.1448 17.6337C38.9119 17.6337 38.1992 16.2403 38.1992 15.0872C38.2467 13.5016 39.1969 12.1562 41.0498 12.1562Z" fill="#1F1E1D"/>
<path d="M44.2812 12.2043C44.3287 12.2043 44.4237 12.2043 44.4712 12.2043C44.6612 12.2043 44.8038 12.2524 45.0888 12.2524C45.4689 12.2524 45.7064 12.2043 45.849 12.2043C45.944 12.2043 45.9915 12.2043 45.9915 12.3004C45.9915 12.6368 45.4214 12.2043 45.3739 13.1173C45.3739 13.5977 45.3264 16.1443 45.3264 16.2404V16.5287C45.3264 16.7689 45.3739 17.0572 45.5164 17.1052C45.6589 17.1533 45.7064 17.1533 45.849 17.1533C48.177 17.1533 47.9394 16.4326 48.1294 16.4326C48.177 16.4326 48.2245 16.4806 48.2245 16.5767C48.2245 17.0092 47.6543 17.5377 47.3693 17.5377C46.4191 17.5377 45.8015 17.4416 45.3264 17.4416C44.9463 17.4416 44.7563 17.4896 44.4237 17.4896C44.2812 17.4896 44.1861 17.4416 44.1861 17.3935C44.1861 17.2974 44.2812 17.2974 44.2812 17.2974C44.3287 17.2974 44.3762 17.2974 44.4712 17.2013C44.6137 17.0572 44.7087 16.865 44.7087 15.7599V14.847C44.7087 14.4626 44.7087 14.0302 44.7087 13.5497C44.7087 13.3575 44.7087 13.1173 44.7087 12.877C44.7087 12.5887 44.4237 12.4446 44.0911 12.3965C43.9961 12.3965 43.9961 12.3485 43.9961 12.3004C44.0436 12.2043 44.1861 12.2043 44.2812 12.2043Z" fill="#1F1E1D"/>
<path d="M48.6531 17.2973C49.0807 17.1532 49.0332 17.0091 51.2187 12.3003C51.2662 12.1562 51.3137 12.1082 51.4562 12.1082C51.5987 12.1082 51.5037 12.1082 51.9788 13.3094C52.3114 14.1742 53.3566 16.5766 53.4041 16.7208C53.7842 17.4895 54.2118 17.1532 54.2118 17.3934C54.2118 17.4415 54.2118 17.4895 54.0217 17.4895C53.8317 17.4895 53.5466 17.4415 53.3566 17.4415C53.0715 17.4415 52.8815 17.4895 52.6915 17.4895C52.4064 17.4895 52.3589 17.4895 52.3589 17.3934C52.3589 17.2493 52.739 17.3454 52.739 17.0571C52.739 16.8169 52.4064 15.9039 52.2639 15.6637C52.2164 15.6157 52.2164 15.5196 51.9788 15.5196C51.8363 15.5196 51.5512 15.5196 51.0761 15.5196H50.696C50.2209 15.5196 50.2209 15.5676 50.1259 15.7118C49.8409 16.2883 49.6508 16.6727 49.6508 16.8649C49.6508 17.3934 50.1734 17.1532 50.1734 17.3934C50.1734 17.4415 50.1734 17.4895 50.0309 17.4895C49.9359 17.4895 49.6983 17.4895 49.4133 17.4895C49.1282 17.4895 48.9382 17.5376 48.7957 17.5376C48.6531 17.5376 48.6056 17.5376 48.6056 17.4415C48.5581 17.3454 48.6056 17.2973 48.6531 17.2973ZM50.7911 15.1352H51.0286C51.3612 15.1352 51.7413 15.1352 51.7413 15.1352C51.9313 15.1352 52.0263 15.0871 52.0263 15.0391C52.0263 14.943 51.3612 13.3094 51.2187 13.3094C51.1236 13.3094 50.4585 14.943 50.4585 15.0391C50.411 15.0871 50.4585 15.1352 50.7911 15.1352Z" fill="#1F1E1D"/>
<path d="M54.7812 12.2043C54.9712 12.2043 55.2087 12.2524 55.5888 12.2524C55.9214 12.2524 55.7789 12.2524 56.254 12.2524C56.3015 12.2524 56.444 12.2524 56.444 12.3485C56.444 12.3965 56.3015 12.4446 56.1114 12.5407C55.9214 12.6368 55.8739 13.1173 55.8739 13.4055C55.8739 15.1353 55.8739 15.4716 55.8739 16.1443C55.8739 16.5767 55.9214 16.817 56.0639 17.0572C56.2064 17.2494 56.349 17.2974 56.3965 17.2974H56.539C56.634 17.2974 56.6815 17.3455 56.6815 17.3935C56.6815 17.4896 56.634 17.5377 56.4915 17.5377C56.1114 17.5377 56.0164 17.4896 55.7789 17.4896C55.3988 17.4896 55.2563 17.5377 54.9712 17.5377C54.6861 17.5377 54.6386 17.4896 54.6386 17.4416C54.6386 17.2494 55.0662 17.4416 55.1612 16.9611C55.1612 16.9131 55.2563 15.4716 55.2563 14.9911V14.5587C55.2563 14.3665 55.2563 14.0782 55.2563 13.7419V13.4055C55.2563 13.2134 55.2563 13.0212 55.2087 12.877C55.1612 12.5887 54.8762 12.4926 54.6386 12.4926C54.4961 12.4926 54.4961 12.3965 54.4961 12.3965C54.5911 12.2524 54.5911 12.2043 54.7812 12.2043Z" fill="#1F1E1D"/>
<path d="M57.2502 12.2043H58.4854C58.818 12.2043 58.9605 12.2043 59.1981 12.2043C60.0533 12.2043 60.8134 12.6368 60.8134 13.4536C60.8134 14.5587 59.9107 14.7509 59.9107 14.895C59.9107 14.9911 61.051 16.6728 61.3835 16.9611C61.431 17.0092 61.6686 17.2974 62.0487 17.2974C62.0962 17.2974 62.1437 17.3455 62.1437 17.3935C62.1437 17.5377 62.1437 17.5857 61.6211 17.5857C61.6211 17.5857 61.241 17.5857 61.0035 17.3935C60.6234 17.1533 60.0533 16.2404 59.6732 15.6158C59.3881 15.0872 59.1981 15.0392 59.1506 15.0392H59.0081H58.5805C58.4854 15.0392 58.4379 15.0392 58.4379 15.5677C58.4379 16.6248 58.4379 16.5287 58.4379 16.6248C58.4379 17.5377 59.3406 17.2013 59.3406 17.4416C59.3406 17.5377 59.2931 17.5377 59.1981 17.5377C59.1506 17.5377 58.2004 17.4896 58.1529 17.4896C57.8203 17.4896 57.4402 17.5377 57.3452 17.5377C57.2502 17.5377 57.2027 17.5377 57.2027 17.4416C57.2027 17.2013 57.8203 17.4896 57.8203 16.6728C57.8203 16.1923 57.8203 15.1353 57.8203 14.3185C57.8203 13.5497 57.8203 13.2614 57.8203 13.0692C57.8203 12.2524 57.1077 12.5407 57.1077 12.3485C57.0601 12.2043 57.1077 12.2043 57.2502 12.2043ZM58.4379 14.6548C58.533 14.7028 58.628 14.7028 58.7705 14.7028H58.8655H59.0556C59.9582 14.7028 60.1958 14.1743 60.1958 13.6938C60.1958 13.1653 59.8157 12.4926 58.7705 12.4926C58.3904 12.4926 58.3904 12.6368 58.3904 13.3095V13.5016C58.3904 14.4626 58.3904 14.6067 58.4379 14.6548Z" fill="#1F1E1D"/>
<path d="M66.9918 12.1562C67.9896 12.1562 68.8447 12.6848 68.8922 12.6848C68.9398 12.6848 68.9873 12.5887 69.0348 12.5887C69.0823 12.5887 69.1298 12.6367 69.1298 12.6848C69.1298 13.1653 69.2248 13.6457 69.2248 13.7418C69.2248 13.8379 69.1773 13.886 69.1298 13.886C69.0823 13.886 69.0348 13.8379 68.9873 13.7899C68.5597 12.9731 67.8945 12.4445 66.9443 12.4445C65.7091 12.4445 64.8539 13.3094 64.8539 14.6067C64.8539 15.952 65.519 17.2493 67.2769 17.2493C68.1796 17.2493 68.7497 16.5767 69.0348 16.1442C69.0823 16.0962 69.0823 16.0962 69.1298 16.0962C69.1773 16.0962 69.1773 16.1442 69.1773 16.1923C69.1773 16.3845 69.0823 16.7689 69.0348 16.913C69.0348 16.9611 68.9873 17.0091 68.9398 17.0572C68.3221 17.3454 67.7995 17.5857 67.0394 17.5857C64.8064 17.5857 64.0938 16.1923 64.0938 15.0391C64.1888 13.5016 65.139 12.1562 66.9918 12.1562Z" fill="#1F1E1D"/>
<path d="M70.175 12.2043C70.2226 12.2043 70.3176 12.2043 70.3651 12.2043C70.5551 12.2043 70.6977 12.2524 70.9827 12.2524C71.3628 12.2524 71.6003 12.2043 71.7429 12.2043C71.8379 12.2043 71.8854 12.2043 71.8854 12.3004C71.8854 12.6368 71.3153 12.2043 71.2678 13.1173C71.2678 13.5977 71.2203 16.1443 71.2203 16.2404V16.5287C71.2203 16.7689 71.2678 17.0572 71.4103 17.1052C71.5528 17.1533 71.6003 17.1533 71.7429 17.1533C74.0709 17.1533 73.8333 16.4326 74.0233 16.4326C74.0709 16.4326 74.1184 16.4806 74.1184 16.5767C74.1184 17.0092 73.5482 17.5377 73.2632 17.5377C72.313 17.5377 71.6954 17.4416 71.2203 17.4416C70.7927 17.4416 70.6501 17.4896 70.3176 17.4896C70.1751 17.4896 70.1275 17.4416 70.1275 17.3935C70.1275 17.2974 70.2226 17.2974 70.2226 17.2974C70.2701 17.2974 70.3176 17.2974 70.4126 17.2013C70.5551 17.0572 70.6501 16.865 70.6501 15.7599V14.847C70.6501 14.4626 70.6501 14.0302 70.6501 13.5497C70.6501 13.3575 70.6501 13.1173 70.6501 12.877C70.6501 12.5887 70.3651 12.4446 70.0325 12.3965C69.9375 12.3965 69.9375 12.3485 69.9375 12.3004C69.985 12.2043 70.1275 12.2043 70.175 12.2043Z" fill="#1F1E1D"/>
<path d="M74.6874 12.2043C74.8774 12.2043 75.115 12.2524 75.4951 12.2524C75.8276 12.2524 75.6851 12.2524 76.1602 12.2524C76.2077 12.2524 76.3502 12.2524 76.3502 12.3485C76.3502 12.3965 76.2077 12.4446 76.0177 12.5407C75.8276 12.6368 75.7801 13.1173 75.7801 13.4055C75.7801 15.1353 75.7801 15.4716 75.7801 16.1443C75.7801 16.5767 75.8276 16.817 75.9702 17.0572C76.1127 17.2494 76.2552 17.2974 76.3027 17.2974H76.4453C76.5403 17.2974 76.5878 17.3455 76.5878 17.3935C76.5878 17.4896 76.5403 17.5377 76.3978 17.5377C76.0177 17.5377 75.9227 17.4896 75.6851 17.4896C75.305 17.4896 75.1625 17.5377 74.8774 17.5377C74.5924 17.5377 74.5449 17.4896 74.5449 17.4416C74.5449 17.2494 74.9725 17.4416 75.0675 16.9611C75.0675 16.9131 75.1625 15.4716 75.1625 14.9911V14.5587C75.1625 14.3665 75.1625 14.0782 75.1625 13.7419V13.4055C75.1625 13.2134 75.1625 13.0212 75.115 12.877C75.0675 12.5887 74.7824 12.4926 74.5449 12.4926C74.4023 12.4926 74.4023 12.3965 74.4023 12.3965C74.4974 12.2524 74.4974 12.2043 74.6874 12.2043Z" fill="#1F1E1D"/>
<path d="M77.157 12.2043C77.252 12.2043 77.347 12.2043 77.4421 12.2043C77.6321 12.2043 77.6796 12.2043 77.8221 12.2043C77.9172 12.2043 78.0597 12.2524 78.0597 12.3485C78.1072 12.3965 78.2972 12.6368 78.5348 12.877C79.2949 13.886 80.7677 15.5677 81.1953 16.0482C81.3854 16.2884 81.4804 16.3845 81.5279 16.3845C81.5754 16.3845 81.6229 16.1443 81.6229 15.904V15.0392C81.6229 13.886 81.6229 13.6938 81.6229 13.5016V13.4536C81.6229 12.3965 81.2428 12.5407 80.9103 12.4446C80.8153 12.3965 80.7677 12.3485 80.7677 12.3004C80.7677 12.2524 80.7678 12.2043 80.9103 12.2043C81.0053 12.2043 81.5279 12.2043 81.6229 12.2043C81.908 12.2043 82.1455 12.2043 82.2881 12.2043C82.4306 12.2043 82.5256 12.2043 82.5256 12.3485C82.5256 12.4446 82.2881 12.4926 82.2881 12.4926C82.2406 12.5407 82.0505 12.6848 82.0505 13.3095V13.5977C82.0505 14.6548 81.9555 16.5287 81.9555 17.2974V17.4416C81.9555 17.5377 81.9555 17.6338 81.8605 17.6338C81.813 17.6338 81.7655 17.5857 81.7655 17.5857C78.4873 13.7899 78.3923 13.6458 78.3447 13.6458C78.2972 13.6458 78.2497 13.838 78.2497 14.1743C78.2497 15.3755 78.2022 16.2404 78.2022 16.5767C78.2022 17.5377 78.9149 17.2013 78.9149 17.4416C78.9149 17.5377 78.8674 17.5857 78.8198 17.5857C78.6298 17.5857 78.6773 17.5857 78.0122 17.5857C77.8697 17.5857 77.6321 17.5857 77.3946 17.5857C77.2995 17.5857 77.252 17.5857 77.252 17.4896C77.252 17.2974 77.6321 17.5377 77.7746 16.9131C77.8221 16.6728 77.9647 14.4146 77.9647 13.838C77.9647 12.9731 77.7271 12.5887 77.2045 12.5407C77.1095 12.5407 77.1095 12.4446 77.1095 12.4446C76.967 12.3004 77.0145 12.2043 77.157 12.2043Z" fill="#1F1E1D"/>
<path d="M83.0976 12.2043C83.2876 12.2043 83.5251 12.2524 83.9052 12.2524C84.2378 12.2524 84.0953 12.2524 84.5704 12.2524C84.6179 12.2524 84.7604 12.2524 84.7604 12.3485C84.7604 12.3965 84.6179 12.4446 84.4278 12.5407C84.2378 12.6368 84.1903 13.1173 84.1903 13.4055C84.1903 15.1353 84.1903 15.4716 84.1903 16.1443C84.1903 16.5767 84.2378 16.817 84.3803 17.0572C84.5229 17.2494 84.6654 17.2974 84.7129 17.2974H84.8554C84.9504 17.2974 84.9979 17.3455 84.9979 17.3935C84.9979 17.4896 84.9504 17.5377 84.8079 17.5377C84.4278 17.5377 84.3328 17.4896 84.0953 17.4896C83.7152 17.4896 83.5727 17.5377 83.2876 17.5377C83.0025 17.5377 82.955 17.4896 82.955 17.4416C82.955 17.2494 83.3826 17.4416 83.4776 16.9611C83.4776 16.9131 83.5727 15.4716 83.5727 14.9911V14.5587C83.5727 14.3665 83.5727 14.0782 83.5727 13.7419V13.4055C83.5727 13.2134 83.5727 13.0212 83.5251 12.877C83.4776 12.5887 83.1926 12.4926 82.955 12.4926C82.8125 12.4926 82.8125 12.3965 82.8125 12.3965C82.86 12.2524 82.9075 12.2043 83.0976 12.2043Z" fill="#1F1E1D"/>
<path d="M88.3239 12.1562C89.3216 12.1562 90.1768 12.6848 90.2243 12.6848C90.2718 12.6848 90.3193 12.5887 90.3668 12.5887C90.4143 12.5887 90.4618 12.6367 90.4618 12.6848C90.4618 13.1653 90.5568 13.6457 90.5568 13.7418C90.5568 13.8379 90.5093 13.886 90.4618 13.886C90.4143 13.886 90.3668 13.8379 90.3193 13.7899C89.8917 12.9731 89.2266 12.4445 88.2764 12.4445C87.0411 12.4445 86.1859 13.3094 86.1859 14.6067C86.1859 15.952 86.8511 17.2493 88.6089 17.2493C89.5116 17.2493 90.0817 16.5767 90.3668 16.1442C90.4143 16.0962 90.4143 16.0962 90.4618 16.0962C90.5093 16.0962 90.5093 16.1442 90.5093 16.1923C90.5093 16.3845 90.4143 16.7689 90.3668 16.913C90.3668 16.9611 90.3193 17.0091 90.2718 17.0572C89.6542 17.3454 89.1315 17.5857 88.3714 17.5857C86.1384 17.5857 85.4258 16.1923 85.4258 15.0391C85.5208 13.5016 86.471 12.1562 88.3239 12.1562Z" fill="#1F1E1D"/>
<path d="M38.625 20.2764H90.6007" stroke="#F8E4A6" stroke-miterlimit="10"/>
<path d="M31.3564 11.1472H31.5465L31.3089 12.1082H32.0691L32.0216 12.3484H31.2614L30.8813 13.886C30.8338 14.0301 30.8813 14.1262 30.9289 14.1742C30.9764 14.2223 31.0239 14.2703 31.1189 14.2703C31.2139 14.2703 31.3564 14.2223 31.4515 14.1262C31.5465 14.0301 31.6415 13.8379 31.7365 13.5977H31.9266C31.8315 13.934 31.7365 14.1742 31.5465 14.3184C31.3564 14.4625 31.1664 14.5586 30.9764 14.5586C30.7863 14.5586 30.6438 14.5106 30.5488 14.4145C30.4063 14.2703 30.4062 14.1262 30.4538 13.934L30.8338 12.3484H30.4062L30.4538 12.1562C30.6438 12.1082 30.7863 12.0601 30.9289 11.916C31.1189 11.7238 31.2614 11.4836 31.3564 11.1472Z" fill="black"/>
<path d="M32.7803 10.7148L33.683 10.6667L33.2554 12.5406C33.3979 12.3965 33.588 12.2523 33.7305 12.1562C33.873 12.0601 34.0631 12.0121 34.2056 12.0121C34.3481 12.0121 34.4907 12.0601 34.5857 12.1082C34.6807 12.1562 34.7282 12.2523 34.7757 12.3965C34.8232 12.5406 34.8232 12.7328 34.7757 12.925L34.5382 14.0782C34.5382 14.1743 34.5382 14.2223 34.5382 14.2223C34.5857 14.2704 34.6332 14.2704 34.6807 14.2704H34.8708L34.8232 14.4625H33.5405L33.588 14.2704H33.7305C33.8255 14.2704 33.9206 14.2704 33.9681 14.2223C34.0156 14.1743 34.0631 14.1262 34.0631 14.0782L34.3006 12.925C34.3481 12.7328 34.3481 12.5887 34.2531 12.4445C34.2056 12.3484 34.0631 12.3004 33.9206 12.3004C33.8255 12.3004 33.683 12.3484 33.588 12.3965C33.493 12.4445 33.3504 12.5406 33.2554 12.6848C33.1604 12.8289 33.1129 12.925 33.0654 13.0692L32.8278 14.0301C32.8278 14.1262 32.8278 14.1743 32.8278 14.2223C32.8753 14.2704 32.9229 14.2704 32.9704 14.2704H33.2554L33.2079 14.4625H31.9727L32.0202 14.2704H32.1627C32.2577 14.2704 32.3527 14.2704 32.4002 14.2223C32.4478 14.1743 32.4953 14.1262 32.4953 14.0301L33.1604 11.1953C33.1604 11.0992 33.1604 11.0031 33.1129 10.955C33.0654 10.907 33.0179 10.8589 32.8753 10.8589H32.6853L32.7803 10.7148Z" fill="black"/>
<path d="M54.6355 26.4265L54.6831 26.6187C54.493 26.7628 54.303 26.8589 54.1604 26.8589C54.0179 26.8589 53.9229 26.8109 53.8279 26.7628C53.7329 26.6667 53.6853 26.5706 53.6853 26.3784C53.4478 26.5706 53.2578 26.7148 53.1152 26.7628C52.9727 26.8109 52.7827 26.8589 52.5926 26.8589C52.3076 26.8589 52.1175 26.8109 51.975 26.6667C51.8325 26.5226 51.8325 26.3784 51.88 26.1862C51.9275 25.8979 52.165 25.6577 52.5451 25.4655C52.9252 25.2733 53.4003 25.1292 53.9704 25.0811L54.0654 24.6487C54.1129 24.5046 54.0654 24.3604 53.9704 24.2643C53.8754 24.1682 53.7329 24.1202 53.5428 24.1202C53.3528 24.1202 53.2103 24.1682 53.0677 24.2163C52.9727 24.2643 52.9252 24.3124 52.8777 24.3604C52.8777 24.4085 52.8777 24.4565 52.9252 24.5046C52.9727 24.6007 52.9727 24.6487 52.9727 24.6967C52.9727 24.7928 52.9252 24.8409 52.8302 24.937C52.7827 24.985 52.6876 25.0331 52.5926 25.0331C52.4976 25.0331 52.4026 24.985 52.3551 24.937C52.3076 24.8889 52.3076 24.7928 52.3076 24.6967C52.3551 24.5046 52.4976 24.3124 52.7827 24.1682C53.0202 24.0241 53.3528 23.928 53.7329 23.928C54.0654 23.928 54.303 24.0241 54.4455 24.1682C54.588 24.3124 54.6355 24.5046 54.588 24.6967L54.208 26.2343C54.1604 26.3784 54.1604 26.4745 54.208 26.5226C54.2555 26.5706 54.303 26.6187 54.3505 26.6187C54.4455 26.5226 54.5405 26.4745 54.6355 26.4265ZM53.9229 25.2253C53.4003 25.2733 53.0202 25.4175 52.7827 25.5616C52.5926 25.7058 52.4976 25.8499 52.4501 26.0901C52.4026 26.2343 52.4501 26.3784 52.4976 26.4745C52.5451 26.5706 52.6401 26.6187 52.7827 26.6187C53.0202 26.6187 53.2578 26.5226 53.4478 26.3304C53.6378 26.1382 53.7804 25.946 53.8754 25.6577L53.9229 25.2253Z" fill="black"/>
<path d="M55.632 23.9279L56.5822 23.8799C56.5822 24.0721 56.5822 24.2643 56.5347 24.5045C56.7247 24.3123 56.8672 24.1682 57.1048 24.024C57.2948 23.9279 57.4849 23.8799 57.7224 23.8799C57.9125 23.8799 58.055 23.9279 58.15 23.976C58.245 24.0721 58.34 24.1682 58.3876 24.3123C58.4351 24.4565 58.4351 24.6487 58.3876 24.8408L58.055 26.2342C58.055 26.3303 58.055 26.4264 58.055 26.4745C58.1025 26.5225 58.15 26.5225 58.2925 26.5225H58.4826L58.4351 26.7628H56.9623L57.0098 26.5225H57.1523C57.2948 26.5225 57.3898 26.5225 57.4374 26.4745C57.4849 26.4264 57.5324 26.3784 57.5799 26.2823L57.8649 25.0811C57.9125 24.8408 57.9125 24.6006 57.8649 24.5045C57.8174 24.3123 57.6274 24.2162 57.4374 24.2162C57.1998 24.2162 57.0098 24.3123 56.8197 24.5045C56.6297 24.6967 56.4872 24.9369 56.4397 25.2252L56.2021 26.2823C56.1546 26.3784 56.2021 26.4745 56.2021 26.5225C56.2496 26.5706 56.2971 26.5706 56.4397 26.5706H56.6297L56.5822 26.8108H55.1094L55.1569 26.5706H55.3469C55.4419 26.5706 55.537 26.5706 55.5845 26.5225C55.632 26.4745 55.6795 26.4264 55.6795 26.3784L56.0596 24.5045C56.1071 24.3604 56.0596 24.3123 56.0121 24.2162C55.9646 24.1682 55.8695 24.1201 55.7745 24.1201H55.632V23.9279Z" fill="black"/>
<path d="M59.3859 23.9279L60.3361 23.8799C60.3361 24.0721 60.3361 24.2643 60.2886 24.5045C60.4786 24.3123 60.6211 24.1682 60.8587 24.024C61.0487 23.9279 61.2388 23.8799 61.4763 23.8799C61.6664 23.8799 61.8089 23.9279 61.9039 23.976C61.9989 24.0721 62.0939 24.1682 62.1415 24.3123C62.189 24.4565 62.189 24.6487 62.1415 24.8408L61.8089 26.2342C61.8089 26.3303 61.8089 26.4264 61.8089 26.4745C61.8564 26.5225 61.9039 26.5225 62.0464 26.5225H62.2365L62.189 26.7628H60.7162L60.7637 26.5225H60.9062C61.0487 26.5225 61.1438 26.5225 61.1913 26.4745C61.2388 26.4264 61.2863 26.3784 61.3338 26.2823L61.6188 25.0811C61.6664 24.8408 61.6664 24.6006 61.6188 24.5045C61.5713 24.3123 61.3813 24.2162 61.1913 24.2162C60.9537 24.2162 60.7637 24.3123 60.5736 24.5045C60.3836 24.6967 60.2411 24.9369 60.1936 25.2252L59.956 26.2823C59.9085 26.3784 59.956 26.4745 59.956 26.5225C60.0035 26.5706 60.051 26.5706 60.1936 26.5706H60.3836L60.3361 26.8108H58.8633L58.9108 26.5706H59.1008C59.1958 26.5706 59.2909 26.5706 59.3384 26.5225C59.3859 26.4745 59.4334 26.4264 59.4334 26.3784L59.861 24.5526C59.9085 24.4084 59.861 24.3604 59.8135 24.2643C59.766 24.2162 59.6709 24.1682 59.5759 24.1682H59.4334L59.3859 23.9279Z" fill="black"/>
<path d="M63.0467 23.928L64.1869 23.88L63.6168 26.2824C63.6168 26.3304 63.6168 26.3785 63.6168 26.4265C63.6643 26.4746 63.7118 26.4746 63.7593 26.4746H64.0919L64.0444 26.7148H62.4766L62.5241 26.4746H62.8091C62.9041 26.4746 62.9517 26.4746 62.9992 26.4265C63.0467 26.3785 63.0942 26.3304 63.0942 26.2343L63.5218 24.4565C63.5693 24.3605 63.5218 24.2644 63.4743 24.2163C63.4268 24.1683 63.3317 24.1202 63.1892 24.1202H62.9517L63.0467 23.928ZM64.2344 22.2463C64.3294 22.2463 64.377 22.2944 64.4245 22.3424C64.472 22.3905 64.472 22.4866 64.472 22.5827C64.472 22.6788 64.377 22.7749 64.3294 22.8229C64.2344 22.871 64.1394 22.919 64.0919 22.919C63.9969 22.919 63.9494 22.871 63.9019 22.8229C63.8543 22.7749 63.8543 22.6788 63.8543 22.5827C63.8543 22.4866 63.9494 22.3905 63.9969 22.3424C64.0444 22.2944 64.1394 22.2463 64.2344 22.2463Z" fill="black"/>
<path d="M64.8984 23.928H66.2762L66.2287 24.1202C66.0387 24.1202 65.9437 24.1202 65.8486 24.1682C65.8011 24.2163 65.7536 24.2163 65.7536 24.3124C65.7536 24.3604 65.7536 24.4085 65.7536 24.4565L66.0862 26.1382L67.1314 24.5046C67.1314 24.4565 67.1789 24.4565 67.1789 24.4085C67.2264 24.2643 67.0839 24.1682 66.7988 24.1202L66.8463 23.928H67.9866L67.9391 24.1202C67.7965 24.1202 67.7015 24.1682 67.654 24.2163C67.559 24.2643 67.5115 24.3604 67.464 24.4085L65.8961 26.8109H65.7536L65.231 24.3604C65.231 24.2643 65.1835 24.2163 65.136 24.1682C65.0885 24.1202 64.9935 24.1202 64.8984 24.1202V23.928Z" fill="black"/>
<path d="M70.5974 25.3696H68.602C68.507 25.802 68.507 26.0903 68.6495 26.2825C68.792 26.4747 68.9821 26.5708 69.2196 26.5708C69.5997 26.5708 69.9798 26.3305 70.3124 25.8981L70.5024 25.9942C70.0748 26.5708 69.5997 26.8591 69.0296 26.8591C68.6495 26.8591 68.3645 26.7149 68.1744 26.4266C67.9844 26.1383 67.9369 25.802 68.0319 25.3696C68.1269 24.8891 68.3645 24.5528 68.6495 24.2645C68.9821 23.9762 69.3146 23.832 69.6947 23.832C69.9798 23.832 70.1698 23.8801 70.3599 24.0242C70.5024 24.1684 70.6449 24.3606 70.6449 24.6488C70.6449 24.841 70.6449 25.0813 70.5974 25.3696ZM68.6495 25.1293H69.8373C69.8848 25.1293 69.9798 25.0813 70.0273 25.0332C70.0748 24.9852 70.1223 24.8891 70.1223 24.793C70.1698 24.5528 70.1698 24.3606 70.0273 24.2164C69.9323 24.0723 69.7897 23.9762 69.5997 23.9762C69.4097 23.9762 69.2196 24.0723 69.0296 24.2645C68.8871 24.5047 68.7445 24.7449 68.6495 25.1293Z" fill="black"/>
<path d="M71.3103 23.9279L72.308 23.8799L72.0229 25.033C72.213 24.6487 72.403 24.3604 72.5931 24.1682C72.7831 23.976 73.0207 23.8799 73.2107 23.8799C73.3532 23.8799 73.4482 23.9279 73.5433 24.024C73.5908 24.1201 73.6383 24.2643 73.5908 24.4084C73.5433 24.5526 73.4958 24.6487 73.4482 24.6967C73.3532 24.7447 73.3057 24.7928 73.2107 24.7928C73.1157 24.7928 73.0682 24.7447 73.0207 24.6967C72.9731 24.6487 72.9731 24.5526 72.9731 24.4565C72.9731 24.4084 73.0207 24.3123 73.0682 24.2643C73.1157 24.2162 73.1157 24.1682 73.1157 24.1682C73.1157 24.1201 73.1157 24.1201 73.0682 24.1201C72.9731 24.1201 72.8781 24.1682 72.7356 24.2643C72.5456 24.4084 72.403 24.6006 72.2605 24.8408C72.0705 25.2252 71.9279 25.5135 71.8804 25.7057L71.7379 26.3303C71.7379 26.3784 71.7379 26.4745 71.7854 26.4745C71.8329 26.5225 71.8804 26.5225 72.0229 26.5225H72.3555L72.308 26.7628H70.5977L70.6452 26.5225H70.9302C71.0252 26.5225 71.1203 26.5225 71.1678 26.4745C71.2153 26.4264 71.2628 26.3784 71.2628 26.3303L71.6904 24.5526C71.7379 24.4084 71.7379 24.3123 71.6904 24.2643C71.6429 24.2162 71.5954 24.1682 71.4528 24.1682H71.2628L71.3103 23.9279Z" fill="black"/>
<path d="M73.9738 25.6578C74.0213 25.9941 74.1164 26.2343 74.2114 26.3785C74.3539 26.5226 74.544 26.5707 74.734 26.5707C74.9715 26.5707 75.1141 26.5226 75.2566 26.4265C75.3991 26.3304 75.4941 26.2343 75.4941 26.0421C75.4941 25.946 75.4941 25.898 75.4941 25.8019C75.4466 25.7539 75.3991 25.7058 75.3516 25.6578C75.3041 25.6097 75.1141 25.5617 74.7815 25.5136C74.4964 25.4656 74.3064 25.3695 74.2114 25.3214C74.1164 25.2734 74.0213 25.1773 73.9738 25.0331C73.9263 24.937 73.9263 24.7929 73.9738 24.6488C74.0213 24.4566 74.1164 24.2644 74.3064 24.0722C74.5439 23.88 74.829 23.7358 75.1141 23.7358C75.3516 23.7358 75.5417 23.8319 75.7317 23.9761L75.9692 23.7839H76.1118L75.9692 24.7929H75.7792C75.7792 24.5046 75.6842 24.3124 75.5892 24.1683C75.4466 24.0241 75.3041 23.9761 75.0666 23.9761C74.8765 23.9761 74.734 24.0241 74.5915 24.1202C74.4489 24.2163 74.4014 24.3124 74.3539 24.4566C74.3064 24.5527 74.3539 24.6968 74.4489 24.7448C74.5439 24.8409 74.6865 24.889 74.9715 24.937C75.3041 24.9851 75.4941 25.0331 75.5892 25.0812C75.7317 25.1292 75.8267 25.2253 75.9217 25.3695C75.9692 25.5136 75.9692 25.6578 75.9692 25.85C75.9217 26.0902 75.7792 26.3304 75.5417 26.4746C75.3041 26.6668 75.019 26.7148 74.734 26.7148C74.4489 26.7148 74.2114 26.6187 74.0213 26.4265L73.7363 26.6668H73.5938L73.7838 25.5617H73.9738V25.6578Z" fill="black"/>
<path d="M79.2449 26.4265L79.2924 26.6187C79.1024 26.7628 78.9124 26.8589 78.7698 26.8589C78.6273 26.8589 78.5323 26.8109 78.4373 26.7628C78.3422 26.6667 78.2947 26.5706 78.2947 26.3784C78.0572 26.5706 77.8671 26.7148 77.7246 26.7628C77.5821 26.8109 77.392 26.8589 77.202 26.8589C76.9169 26.8589 76.7269 26.8109 76.5844 26.6667C76.4418 26.5226 76.4418 26.3784 76.4894 26.1862C76.5369 25.8979 76.7744 25.6577 77.1545 25.4655C77.5346 25.2733 78.0097 25.1292 78.5798 25.0811L78.6748 24.6487C78.7223 24.5046 78.6748 24.3604 78.5798 24.2643C78.4848 24.1682 78.3422 24.1202 78.1522 24.1202C77.9622 24.1202 77.8196 24.1682 77.6771 24.2163C77.5821 24.2643 77.5346 24.3124 77.4871 24.3604C77.4871 24.4085 77.4871 24.4565 77.5346 24.5046C77.5821 24.6007 77.5821 24.6487 77.5821 24.6967C77.5821 24.7928 77.5346 24.8409 77.4395 24.937C77.392 24.985 77.297 25.0331 77.202 25.0331C77.107 25.0331 77.012 24.985 76.9645 24.937C76.9169 24.8889 76.9169 24.7928 76.9169 24.6967C76.9644 24.5046 77.107 24.3124 77.392 24.1682C77.6296 24.0241 77.9622 23.928 78.3422 23.928C78.6748 23.928 78.9123 24.0241 79.0549 24.1682C79.1974 24.3124 79.2449 24.5046 79.1974 24.6967L78.8173 26.2343C78.7698 26.3784 78.7698 26.4745 78.8173 26.5226C78.8648 26.5706 78.9124 26.6187 78.9599 26.6187C79.0549 26.5226 79.1499 26.4745 79.2449 26.4265ZM78.5323 25.2253C78.0097 25.2733 77.6296 25.4175 77.392 25.5616C77.202 25.7058 77.107 25.8499 77.0595 26.0901C77.012 26.2343 77.0595 26.3784 77.107 26.4745C77.1545 26.5706 77.2495 26.6187 77.392 26.6187C77.6296 26.6187 77.8671 26.5226 78.0572 26.3304C78.2472 26.1382 78.3897 25.946 78.4848 25.6577L78.5323 25.2253Z" fill="black"/>
<path d="M80.197 23.9279L81.1947 23.8799L80.9097 25.033C81.0997 24.6487 81.2897 24.3604 81.4798 24.1682C81.6698 23.976 81.9074 23.8799 82.0974 23.8799C82.2399 23.8799 82.335 23.9279 82.43 24.024C82.4775 24.1201 82.525 24.2643 82.4775 24.4084C82.43 24.5526 82.3825 24.6487 82.335 24.6967C82.2399 24.7447 82.1924 24.7928 82.0974 24.7928C82.0024 24.7928 81.9549 24.7447 81.9074 24.6967C81.8599 24.6487 81.8599 24.5526 81.8599 24.4565C81.8599 24.4084 81.9074 24.3123 81.9549 24.2643C82.0024 24.2162 82.0024 24.1682 82.0024 24.1682C82.0024 24.1201 82.0024 24.1201 81.9549 24.1201C81.8599 24.1201 81.7648 24.1682 81.6223 24.2643C81.4323 24.4084 81.2897 24.6006 81.1472 24.8408C80.9572 25.2252 80.8146 25.5135 80.7671 25.7057L80.6246 26.3303C80.6246 26.3784 80.6246 26.4745 80.6721 26.4745C80.7196 26.5225 80.7671 26.5225 80.9097 26.5225H81.2422L81.1947 26.7628H79.4844L79.5319 26.5225H79.8169C79.912 26.5225 80.007 26.5225 80.0545 26.4745C80.102 26.4264 80.1495 26.3784 80.1495 26.3303L80.5771 24.5526C80.6246 24.4084 80.6246 24.3123 80.5771 24.2643C80.5296 24.2162 80.4821 24.1682 80.3396 24.1682H80.102L80.197 23.9279Z" fill="black"/>
<path d="M82.902 23.928H84.2323L84.1848 24.1202H84.0422C83.9472 24.1202 83.8522 24.1202 83.8047 24.1682C83.7572 24.2163 83.7097 24.2643 83.7097 24.3124C83.7097 24.3604 83.7097 24.3604 83.7097 24.4085L84.0898 26.0901L84.9924 24.6967C85.0399 24.6007 85.0875 24.5046 85.135 24.4085C85.135 24.3124 85.135 24.2643 85.0875 24.2163C85.04 24.1682 84.9449 24.1682 84.7549 24.1202L84.8024 23.928H85.9426L85.8951 24.1202C85.6576 24.1202 85.515 24.2643 85.3725 24.4085L83.7572 26.8589C83.4721 27.2913 83.2346 27.5316 83.0445 27.7238C82.807 27.8679 82.6169 27.964 82.4269 27.964C82.2844 27.964 82.1894 27.916 82.0943 27.8199C81.9993 27.7238 81.9993 27.6277 82.0468 27.5316C82.0468 27.4355 82.0943 27.3874 82.1894 27.2913C82.2369 27.2433 82.3319 27.1952 82.4269 27.1952C82.5219 27.1952 82.5694 27.2433 82.6169 27.2913C82.6645 27.3394 82.6645 27.3874 82.6645 27.4835C82.6645 27.4835 82.6645 27.5316 82.6169 27.5796C82.6169 27.6277 82.5694 27.6277 82.5694 27.6277C82.5694 27.6757 82.5694 27.7238 82.6645 27.7238C82.712 27.7238 82.807 27.7238 82.902 27.6277C82.997 27.5796 83.0921 27.4835 83.1871 27.3874C83.2821 27.2913 83.4721 27.0511 83.7097 26.6667L83.1871 24.3604C83.1871 24.2643 83.1396 24.2163 83.092 24.1682C83.0445 24.1202 82.9495 24.1202 82.8545 24.0721L82.902 23.928Z" fill="black"/>
<path d="M47.1781 22.7268H47.3207L47.1306 23.4956H47.7482L47.7007 23.6878H47.0831L46.798 24.889C46.7505 24.9851 46.798 25.0812 46.798 25.1292C46.8456 25.1773 46.8931 25.2253 46.9881 25.2253C47.0831 25.2253 47.1781 25.1773 47.2256 25.0812C47.3207 24.9851 47.3682 24.8409 47.4157 24.6487H47.5582C47.5107 24.889 47.4157 25.0812 47.2731 25.2253C47.1306 25.3694 46.9881 25.4175 46.8456 25.4175C46.703 25.4175 46.5605 25.3694 46.513 25.2734C46.4655 25.1773 46.418 25.0812 46.4655 24.937L46.7505 23.6878H46.418L46.4655 23.5436C46.608 23.4956 46.7505 23.4475 46.8456 23.3514C46.9881 23.2073 47.1306 23.0151 47.1781 22.7268Z" fill="black"/>
<path d="M48.2706 22.4384L48.9833 22.3904L48.6507 23.8318C48.7932 23.6877 48.8882 23.5916 49.0308 23.5435C49.1733 23.4955 49.2683 23.4474 49.4108 23.4474C49.5059 23.4474 49.6484 23.4955 49.6959 23.5435C49.7434 23.5916 49.7909 23.6877 49.8384 23.7838C49.8859 23.8799 49.8384 24.024 49.8384 24.1682L49.6484 25.033C49.6484 25.0811 49.6484 25.1291 49.6484 25.1772C49.6484 25.2252 49.6959 25.2252 49.7909 25.2252H49.9334L49.8859 25.3694H48.8882L48.9357 25.2252H49.0308C49.1258 25.2252 49.1733 25.2252 49.2208 25.1772C49.2683 25.1291 49.2683 25.1291 49.3158 25.033L49.5059 24.1682C49.5534 24.024 49.5534 23.8799 49.4584 23.7838C49.4108 23.6877 49.3158 23.6396 49.2208 23.6396C49.1258 23.6396 49.0308 23.6877 48.9357 23.7357C48.8407 23.7838 48.7457 23.8799 48.6982 23.976C48.6507 24.0721 48.5557 24.1682 48.5557 24.3123L48.3656 25.0811C48.3656 25.1291 48.3656 25.1772 48.3656 25.2252C48.3656 25.2733 48.4131 25.2733 48.5082 25.2733H48.6507L48.6032 25.4174H47.6055L47.653 25.2733H47.748C47.843 25.2733 47.8905 25.2733 47.938 25.2252C47.9855 25.1772 47.9855 25.1291 48.0331 25.0811L48.5557 22.8709C48.5557 22.7748 48.5557 22.7267 48.5557 22.6787C48.5082 22.6306 48.4606 22.6306 48.4131 22.6306H48.2706V22.4384Z" fill="black"/>
<path d="M17.9128 21.1892C17.7228 22.1501 17.6752 22.6306 18.7205 22.7267C18.863 22.7267 19.3856 22.7748 19.5756 22.7748L19.4331 23.2552H14.207L14.3021 22.7748C14.4446 22.7748 14.9197 22.7267 15.0622 22.7267C16.1549 22.5826 16.2975 22.4865 16.5825 21.1892L17.8178 14.7507C18.0078 13.7417 17.9128 13.6937 16.9151 13.6937C16.725 13.6937 16.44 13.6937 16.25 13.6937L16.345 13.2132C17.4377 13.0691 18.6254 12.7327 19.6231 12.3003L17.9128 21.1892Z" fill="#1F1E1D"/>
<path d="M24.1371 13.2613C24.7547 12.6847 25.5624 12.3484 26.4176 12.3484C28.0804 12.3484 29.1256 13.5015 29.1256 15.0871C29.1256 16.8169 27.9854 18.0661 25.99 19.7958L23.377 22.1021H26.4651C27.4153 22.1021 27.6528 22.006 28.5555 20.7087L28.9831 20.9009C28.603 21.6217 28.1754 22.5826 27.8904 23.3033H21.4766L21.5241 22.919C25.3724 19.5075 27.7003 17.5376 27.7003 15.2793C27.7003 14.2703 27.2252 13.4054 25.895 13.4054C24.7547 13.4054 23.9946 14.3184 23.472 14.943L23.0919 14.5586L24.1371 13.2613Z" fill="#1F1E1D"/>
<path d="M41.2384 25.994C41.1434 26.3784 41.1434 26.5706 41.571 26.6187C41.6185 26.6187 41.8561 26.6187 41.9036 26.6667L41.8561 26.8589H39.7656L39.8131 26.6667C39.8606 26.6667 40.0507 26.6667 40.0982 26.6667C40.5258 26.6187 40.6208 26.5706 40.7158 26.0421L41.2384 23.4475C41.3335 23.0631 41.2859 23.0151 40.8584 23.0151C40.8108 23.0151 40.6683 23.0151 40.5733 23.0151L40.6208 22.8229C41.0484 22.7748 41.5235 22.6307 41.9511 22.4385L41.2384 25.994Z" fill="black"/>
<path d="M43.803 22.7748C44.0406 22.5345 44.3731 22.3904 44.7532 22.3904C45.4184 22.3904 45.8459 22.8709 45.8459 23.4955C45.8459 24.2162 45.3709 24.6967 44.5632 25.4174L43.518 26.3784H44.7532C45.1333 26.3784 45.2283 26.3303 45.6084 25.8018L45.7984 25.8979C45.6559 26.1862 45.4659 26.5706 45.3709 26.8589H42.7578V26.7147C44.3256 25.3213 45.2758 24.5525 45.2758 23.6396C45.2758 23.2072 45.0858 22.8709 44.5632 22.8709C44.0881 22.8709 43.803 23.2552 43.5655 23.4955L43.423 23.3513L43.803 22.7748Z" fill="black"/>
</g>
<defs>
<linearGradient id="paint0_linear_3631_585" x1="24.7065" y1="31.6348" x2="24.7065" y2="3.91082" gradientUnits="userSpaceOnUse">
<stop stop-color="#EFB59A"/>
<stop offset="0.4835" stop-color="#F8C9B1"/>
<stop offset="0.5901" stop-color="#F8C7AE"/>
<stop offset="1" stop-color="#F7BFA4"/>
</linearGradient>
<linearGradient id="paint1_linear_3631_585" x1="33.6273" y1="22.8733" x2="-0.218239" y2="10.6925" gradientUnits="userSpaceOnUse">
<stop stop-color="#EEC782"/>
<stop offset="0.175" stop-color="#F0CC87"/>
<stop offset="0.3494" stop-color="#F7D997"/>
<stop offset="0.4835" stop-color="#FFE9AC"/>
<stop offset="0.4958" stop-color="#FEE7A6"/>
<stop offset="0.5585" stop-color="#F8DB8B"/>
<stop offset="0.6289" stop-color="#F4D276"/>
<stop offset="0.7101" stop-color="#F1CC67"/>
<stop offset="0.812" stop-color="#EFC85F"/>
<stop offset="1" stop-color="#EEC75C"/>
</linearGradient>
<clipPath id="clip0_3631_585">
<rect width="90.8387" height="32" fill="white"/>
</clipPath>
</defs>
</svg>
