<svg width="21" height="15" viewBox="0 0 21 15" fill="none" xmlns="http://www.w3.org/2000/svg">
<path d="M4.90653 4.03817C5.41429 4.03817 5.8254 3.62706 5.8254 3.11961C5.8254 2.61216 5.41429 2.20105 4.90653 2.20105C4.39939 2.20105 3.98828 2.61216 3.98828 3.11961C3.98828 3.62706 4.39939 4.03817 4.90653 4.03817Z" fill="url(#paint0_linear_3586_8145)"/>
<path d="M1.83775 5.31891C1.83775 4.8115 1.42601 4.40039 0.918875 4.40039C0.411741 4.40039 0 4.8115 0 5.31891C0 5.82636 0.411741 6.23747 0.918875 6.23747C1.42601 6.23747 1.83775 5.82636 1.83775 5.31891Z" fill="url(#paint1_linear_3586_8145)"/>
<path d="M15.262 4.03817C15.7698 4.03817 16.1809 3.62706 16.1809 3.11961C16.1809 2.61216 15.7698 2.20105 15.262 2.20105C14.7549 2.20105 14.3438 2.61216 14.3438 3.11961C14.3438 3.62706 14.7549 4.03817 15.262 4.03817Z" fill="url(#paint2_linear_3586_8145)"/>
<path d="M19.247 4.40039C18.7392 4.40039 18.3281 4.8115 18.3281 5.31891C18.3281 5.82636 18.7392 6.23747 19.247 6.23747C19.7541 6.23747 20.1652 5.82636 20.1652 5.31891C20.1652 4.8115 19.7541 4.40039 19.247 4.40039Z" fill="url(#paint3_linear_3586_8145)"/>
<path d="M17.0089 12.7123H3.15234V14.1418H17.0089V12.7123Z" fill="url(#paint4_linear_3586_8145)"/>
<path d="M15.7596 7.74057C14.4231 6.82201 15.1751 4.48358 15.1751 4.48358L14.4115 4.26062C12.8077 7.3085 10.449 7.16577 10.6329 3.75931V2.66773H11.9597V1.56295H10.6329V0H9.52784V1.56291H8.20045V2.66769H9.52784V3.75927C9.71213 7.16577 7.35373 7.30847 5.74923 4.26058L4.98628 4.48354C4.98628 4.48354 5.73761 6.82197 4.40183 7.74053C3.06539 8.65905 1.89586 6.40444 1.89586 6.40444L1.14453 6.73819L3.23234 11.7492H16.9284L19.0162 6.73827L18.2649 6.40452C18.2649 6.40452 17.096 8.65909 15.7596 7.74057ZM6.72675 9.63342C6.36203 9.63342 6.06624 9.33799 6.06624 8.97323C6.06624 8.60883 6.36203 8.3134 6.72675 8.3134C7.09083 8.3134 7.38658 8.60883 7.38658 8.97323C7.38662 9.33799 7.09083 9.63342 6.72675 9.63342ZM10.0807 9.30348C9.71599 9.30348 9.42051 9.00805 9.42051 8.6433C9.42051 8.2789 9.71595 7.98346 10.0807 7.98346C10.4451 7.98346 10.7405 8.2789 10.7405 8.6433C10.7406 9.00805 10.4451 9.30348 10.0807 9.30348ZM13.4347 9.63342C13.0699 9.63342 12.7748 9.33799 12.7748 8.97323C12.7748 8.60883 13.0699 8.3134 13.4347 8.3134C13.7994 8.3134 14.0945 8.60883 14.0945 8.97323C14.0945 9.33799 13.7994 9.63342 13.4347 9.63342Z" fill="url(#paint5_linear_3586_8145)"/>
<defs>
<linearGradient id="paint0_linear_3586_8145" x1="4.90684" y1="2.20105" x2="4.90684" y2="4.03817" gradientUnits="userSpaceOnUse">
<stop stop-color="#FFBB9E"/>
<stop offset="1" stop-color="#C6928B"/>
</linearGradient>
<linearGradient id="paint1_linear_3586_8145" x1="0.918875" y1="4.40039" x2="0.918875" y2="6.23747" gradientUnits="userSpaceOnUse">
<stop stop-color="#FFBB9E"/>
<stop offset="1" stop-color="#C6928B"/>
</linearGradient>
<linearGradient id="paint2_linear_3586_8145" x1="15.2623" y1="2.20105" x2="15.2623" y2="4.03817" gradientUnits="userSpaceOnUse">
<stop stop-color="#FFBB9E"/>
<stop offset="1" stop-color="#C6928B"/>
</linearGradient>
<linearGradient id="paint3_linear_3586_8145" x1="19.2467" y1="4.40039" x2="19.2467" y2="6.23747" gradientUnits="userSpaceOnUse">
<stop stop-color="#FFBB9E"/>
<stop offset="1" stop-color="#C6928B"/>
</linearGradient>
<linearGradient id="paint4_linear_3586_8145" x1="10.0806" y1="12.7123" x2="10.0806" y2="14.1418" gradientUnits="userSpaceOnUse">
<stop stop-color="#FFBB9E"/>
<stop offset="1" stop-color="#C6928B"/>
</linearGradient>
<linearGradient id="paint5_linear_3586_8145" x1="10.0804" y1="0" x2="10.0804" y2="11.7492" gradientUnits="userSpaceOnUse">
<stop stop-color="#FFBB9E"/>
<stop offset="1" stop-color="#C6928B"/>
</linearGradient>
</defs>
</svg>
