<svg width="33" height="24" viewBox="0 0 33 24" fill="none" xmlns="http://www.w3.org/2000/svg">
<path d="M8.02606 6.60809C8.85697 6.60809 9.52972 5.93534 9.52972 5.10495C9.52972 4.27455 8.85697 3.60181 8.02606 3.60181C7.19618 3.60181 6.52344 4.27455 6.52344 5.10495C6.52344 5.93534 7.19618 6.60809 8.02606 6.60809Z" fill="url(#paint0_linear_3586_8131)"/>
<path d="M3.00731 8.70376C3.00731 7.87343 2.33353 7.20068 1.50366 7.20068C0.673777 7.20068 0 7.87343 0 8.70376C0 9.53415 0.673777 10.2069 1.50366 10.2069C2.33353 10.2069 3.00731 9.53415 3.00731 8.70376Z" fill="url(#paint1_linear_3586_8131)"/>
<path d="M24.9753 6.60809C25.8062 6.60809 26.4789 5.93534 26.4789 5.10495C26.4789 4.27455 25.8062 3.60181 24.9753 3.60181C24.1454 3.60181 23.4727 4.27455 23.4727 5.10495C23.4727 5.93534 24.1454 6.60809 24.9753 6.60809Z" fill="url(#paint2_linear_3586_8131)"/>
<path d="M31.4958 7.20068C30.6649 7.20068 29.9922 7.87343 29.9922 8.70376C29.9922 9.53415 30.6649 10.2069 31.4958 10.2069C32.3257 10.2069 32.9985 9.53415 32.9985 8.70376C32.9985 7.87343 32.3257 7.20068 31.4958 7.20068Z" fill="url(#paint3_linear_3586_8131)"/>
<path d="M27.8352 20.8025H5.16016V23.1418H27.8352V20.8025Z" fill="url(#paint4_linear_3586_8131)"/>
<path d="M25.7912 12.6667C23.6042 11.1636 24.8348 7.33698 24.8348 7.33698L23.5852 6.97212C20.9607 11.9597 17.1009 11.7261 17.4019 6.15178V4.3655H19.573V2.55763H17.4019V0H15.5935V2.55757H13.4214V4.36544H15.5935V6.15171C15.8951 11.7261 12.0358 11.9596 9.41017 6.97205L8.16167 7.33691C8.16167 7.33691 9.39115 11.1635 7.20528 12.6667C5.0183 14.1697 3.10448 10.4803 3.10448 10.4803L1.875 11.0264L5.29151 19.2265H27.7039L31.1204 11.0266L29.8909 10.4804C29.8909 10.4804 27.9782 14.1698 25.7912 12.6667ZM11.0098 15.7642C10.413 15.7642 9.92894 15.2808 9.92894 14.6839C9.92894 14.0876 10.413 13.6041 11.0098 13.6041C11.6056 13.6041 12.0895 14.0876 12.0895 14.6839C12.0896 15.2808 11.6056 15.7642 11.0098 15.7642ZM16.4982 15.2243C15.9014 15.2243 15.4179 14.7409 15.4179 14.144C15.4179 13.5477 15.9013 13.0642 16.4982 13.0642C17.0945 13.0642 17.578 13.5477 17.578 14.144C17.5781 14.7409 17.0945 15.2243 16.4982 15.2243ZM21.9867 15.7642C21.3899 15.7642 20.9069 15.2808 20.9069 14.6839C20.9069 14.0876 21.3899 13.6041 21.9867 13.6041C22.5835 13.6041 23.0664 14.0876 23.0664 14.6839C23.0665 15.2808 22.5836 15.7642 21.9867 15.7642Z" fill="url(#paint5_linear_3586_8131)"/>
<defs>
<linearGradient id="paint0_linear_3586_8131" x1="8.02658" y1="3.60181" x2="8.02658" y2="6.60809" gradientUnits="userSpaceOnUse">
<stop stop-color="#FFF59E"/>
<stop offset="1" stop-color="#C6C08B"/>
</linearGradient>
<linearGradient id="paint1_linear_3586_8131" x1="1.50366" y1="7.20068" x2="1.50366" y2="10.2069" gradientUnits="userSpaceOnUse">
<stop stop-color="#FFF59E"/>
<stop offset="1" stop-color="#C6C08B"/>
</linearGradient>
<linearGradient id="paint2_linear_3586_8131" x1="24.9758" y1="3.60181" x2="24.9758" y2="6.60809" gradientUnits="userSpaceOnUse">
<stop stop-color="#FFF59E"/>
<stop offset="1" stop-color="#C6C08B"/>
</linearGradient>
<linearGradient id="paint3_linear_3586_8131" x1="31.4953" y1="7.20068" x2="31.4953" y2="10.2069" gradientUnits="userSpaceOnUse">
<stop stop-color="#FFF59E"/>
<stop offset="1" stop-color="#C6C08B"/>
</linearGradient>
<linearGradient id="paint4_linear_3586_8131" x1="16.4977" y1="20.8025" x2="16.4977" y2="23.1418" gradientUnits="userSpaceOnUse">
<stop stop-color="#FFF59E"/>
<stop offset="1" stop-color="#C6C08B"/>
</linearGradient>
<linearGradient id="paint5_linear_3586_8131" x1="16.4977" y1="0" x2="16.4977" y2="19.2265" gradientUnits="userSpaceOnUse">
<stop stop-color="#FFF59E"/>
<stop offset="1" stop-color="#C6C08B"/>
</linearGradient>
</defs>
</svg>
